<svg xmlns="http://www.w3.org/2000/svg" viewBox="0 0 1200 800" role="img" aria-labelledby="title desc">
  <title id="title">Motorcycle seat upholstery tools flatlay</title>
  <desc id="desc">Project-owned illustration of common upholstery tools for motorcycle-seat DIY.</desc>
  <rect width="1200" height="800" fill="#f4f1e9"/>
  <rect x="86" y="92" width="1032" height="612" rx="28" fill="#ffffff" stroke="#d8d0c1" stroke-width="4"/>
  <g transform="translate(145 160)">
    <rect x="0" y="310" width="310" height="78" rx="18" fill="#26343c"/>
    <rect x="22" y="278" width="188" height="62" rx="16" fill="#e69245"/>
    <path d="M196 288h86l63 116h-78l-43-71h-28z" fill="#18222b"/>
    <path d="M70 398h236" stroke="#101820" stroke-width="18" stroke-linecap="round"/>
    <text x="12" y="446" font-family="Arial, sans-serif" font-size="24" font-weight="700" fill="#0f3d45">Tacker</text>
  </g>
  <g transform="translate(525 140)">
    <rect x="28" y="55" width="64" height="340" rx="22" fill="#2f3d45"/>
    <rect x="112" y="42" width="64" height="360" rx="22" fill="#2f3d45"/>
    <circle cx="104" cy="244" r="54" fill="#d8d0bd" stroke="#101820" stroke-width="12"/>
    <path d="M65 56c42 80 81 80 117 0" fill="none" stroke="#101820" stroke-width="18" stroke-linecap="round"/>
    <text x="12" y="446" font-family="Arial, sans-serif" font-size="24" font-weight="700" fill="#0f3d45">Zange</text>
  </g>
  <g transform="translate(760 165)">
    <path d="M54 92h280v72H54z" fill="#6f8d7f"/>
    <path d="M76 164h232v244H76z" fill="#e7d0aa"/>
    <path d="M42 82h306" stroke="#101820" stroke-width="14" stroke-linecap="round"/>
    <path d="M108 204h172M108 252h172M108 300h172" stroke="#8a6a42" stroke-width="12" stroke-linecap="round"/>
    <text x="8" y="446" font-family="Arial, sans-serif" font-size="24" font-weight="700" fill="#0f3d45">Kleber & Klammern</text>
  </g>
  <text x="110" y="84" fill="#101820" font-family="Arial, sans-serif" font-size="38" font-weight="700">Werkzeug nicht blind kaufen</text>
  <text x="110" y="742" fill="#50615a" font-family="Arial, sans-serif" font-size="24">Vor dem Umbau: Fotos, Teststück, Materialverträglichkeit und Rückbau planen.</text>
</svg>
